#N canvas 251 241 450 341 10;
#X obj 102 152 dac~;
#X obj 196 45 netreceive 5001 1;
#X msg 278 239 \; pd dsp 1;
#X obj 286 153 loadbang;
#X obj 105 106 adc~;
#X connect 3 0 2 0;
#X connect 4 0 0 0;
#X connect 4 0 0 1;
